<svg xmlns="http://www.w3.org/2000/svg" xmlns:xlink="http://www.w3.org/1999/xlink" width="12" height="12" viewBox="0 0 12 12">
    <defs>
        <path id="a" d="M9.744 1.007L6 4.752 2.256 1.008a.885.885 0 0 0-1.248 0 .885.885 0 0 0 0 1.248L4.752 6 1.008 9.745a.885.885 0 0 0 0 1.248.885.885 0 0 0 1.248 0L6 7.248l3.744 3.745a.885.885 0 0 0 1.248 0 .885.885 0 0 0 0-1.248L7.248 6l3.744-3.744a.885.885 0 0 0 0-1.248.884.884 0 0 0-1.248 0z"/>
    </defs>
    <g fill="none" fill-rule="evenodd">
        <mask id="b" fill="#fff">
            <use xlink:href="#a"/>
        </mask>
        <g fill="#9BA0B1" mask="url(#b)">
            <path d="M-19-19h50v50h-50z"/>
        </g>
    </g>
</svg>
