<svg xmlns="http://www.w3.org/2000/svg" xmlns:xlink="http://www.w3.org/1999/xlink" width="41" height="40" viewBox="0 0 41 40">
    <defs>
        <path id="a" d="M18.919.119C21.816.119 24 2.868 24 5.989c0 3.136-2.197 5.895-5.11 5.895-.272 0-.549-.02-.822-.062l-.841-.126c-1.684-.252-2.38-.397-4.775-.397-1.908 0-2.058.094-3.406.264l-3.103.393c-.234.03-.47.044-.7.044C2.254 12 0 9.191 0 5.989 0 2.801 2.243 0 5.219 0c.237 0 .48.016.722.048l3.108.405c1.348.176 1.497.274 3.405.274 2.396 0 3.09-.15 4.769-.41l.847-.131c.284-.044.569-.067.849-.067zm-.029 8.328c1.036 0 2.151-1.04 2.151-2.458 0-1.4-1.1-2.433-2.122-2.433-.15 0-.304.012-.456.036l-.849.131c-1.804.28-2.64.44-5.16.44-2.046 0-2.262-.101-3.736-.294L5.61 3.463a3.044 3.044 0 0 0-.391-.026c-1.123 0-2.26 1.136-2.26 2.552 0 1.43 1.15 2.575 2.284 2.575.124 0 .252-.008.38-.024l3.103-.394c1.471-.185 1.684-.283 3.726-.283 2.518 0 3.352.154 5.154.424l.84.126c.15.023.298.034.444.034z"/>
        <filter id="b" width="195.8%" height="291.7%" x="-39.6%" y="-79.2%" filterUnits="objectBoundingBox">
            <feOffset dx="2" dy="2" in="SourceAlpha" result="shadowOffsetOuter1"/>
            <feGaussianBlur in="shadowOffsetOuter1" result="shadowBlurOuter1" stdDeviation="3.5"/>
            <feColorMatrix in="shadowBlurOuter1" values="0 0 0 0 0.0823529412 0 0 0 0 0.145098039 0 0 0 0 0.188235294 0 0 0 0.2 0"/>
        </filter>
    </defs>
    <g fill="none" fill-rule="evenodd">
        <circle cx="20" cy="20" r="20" fill="#FFF" fill-opacity=".2"/>
        <g transform="translate(8 14)">
            <mask id="c" fill="#fff">
                <use xlink:href="#a"/>
            </mask>
            <use fill="#000" filter="url(#b)" xlink:href="#a"/>
            <use fill="#FFF" xlink:href="#a"/>
            <path fill="#FFF" d="M-.889 13.846h26.667V-.924H-.89z" mask="url(#c)"/>
        </g>
    </g>
</svg>
