<svg xmlns="http://www.w3.org/2000/svg" xmlns:xlink="http://www.w3.org/1999/xlink" width="40" height="40" viewBox="0 0 40 40">
    <defs>
        <path id="b" d="M9.455 1.462h1.454a.73.73 0 1 1 0 1.462H5.091a.73.73 0 0 1 0-1.462h1.454a.73.73 0 0 1 0-1.462h2.91a.73.73 0 0 1 .727.73.73.73 0 0 1-.727.732zm-6.546 0v.523a2.4 2.4 0 0 0 2.4 2.4h5.382a2.4 2.4 0 0 0 2.4-2.4v-.523h1.454c.803 0 1.455.653 1.455 1.461v14.615c0 .809-.652 1.462-1.455 1.462H1.455A1.458 1.458 0 0 1 0 17.538V2.923c0-.808.652-1.461 1.455-1.461h1.454zm.294 5.505a.536.536 0 1 0 0 1.071H8.53a.536.536 0 0 0 0-1.071H3.203zm0 3.75a.536.536 0 0 0 0 1.073H8.53a.536.536 0 0 0 0-1.072H3.203zm0 3.752a.536.536 0 1 0 0 1.072H8.53a.536.536 0 1 0 0-1.072H3.203zm8.819-5.7l1.352-1.653a.434.434 0 0 0-.002-.558.354.354 0 0 0-.544 0l-1.125 1.351-.419-.481a.34.34 0 0 0-.52 0 .413.413 0 0 0 0 .533l.698.803c.04.046.088.077.144.098.128.069.304.036.416-.093zm0 3.484l1.352-1.654a.434.434 0 0 0-.002-.558.354.354 0 0 0-.544 0l-1.125 1.351-.419-.48a.34.34 0 0 0-.52 0 .413.413 0 0 0 0 .532l.698.804c.04.045.088.077.144.097.128.07.304.036.416-.092zm0 3.483l1.352-1.653a.434.434 0 0 0-.002-.558.354.354 0 0 0-.544 0l-1.125 1.35-.419-.48a.34.34 0 0 0-.52 0 .413.413 0 0 0 0 .532l.698.804c.04.046.088.077.144.098.128.069.304.035.416-.093z"/>
        <filter id="a" width="225%" height="205.3%" x="-50%" y="-42.1%" filterUnits="objectBoundingBox">
            <feOffset dx="2" dy="2" in="SourceAlpha" result="shadowOffsetOuter1"/>
            <feGaussianBlur in="shadowOffsetOuter1" result="shadowBlurOuter1" stdDeviation="3"/>
            <feColorMatrix in="shadowBlurOuter1" values="0 0 0 0 0.337254902 0 0 0 0 0.631372549 0 0 0 0 0.360784314 0 0 0 0.2 0"/>
        </filter>
    </defs>
    <g fill="none" fill-rule="evenodd">
        <circle cx="20" cy="20" r="20" fill="#FFF" fill-opacity=".2"/>
        <g fill-rule="nonzero" transform="translate(12 11)">
            <use fill="#000" filter="url(#a)" xlink:href="#b"/>
            <use fill="#FFF" fill-rule="evenodd" xlink:href="#b"/>
        </g>
    </g>
</svg>
